<svg viewBox="0 0 1024 1024" xml:space="preserve" xmlns="http://www.w3.org/2000/svg" enable-background="new 0 0 1024 1024"><path d="M911.9 349.6c-21.7-53.5-53.6-101.6-94.8-142.8-41.2-41.2-89.2-73.1-142.8-94.8C622.7 91.1 568 80.5 512 80.5s-110.7 10.6-162.4 31.6c-53.5 21.7-101.6 53.6-142.8 94.8-41.2 41.2-73.1 89.2-94.8 142.8C91.1 401.3 80.5 456 80.5 512c0 56 10.6 110.7 31.6 162.4 21.7 53.5 53.6 101.6 94.8 142.8 41.2 41.2 89.2 73.1 142.8 94.8 51.7 21 106.3 31.6 162.4 31.6S622.8 933 674.5 912c53.5-21.7 101.6-53.6 142.8-94.8 41.2-41.2 73.1-89.2 94.8-142.8 21-51.7 31.6-106.3 31.6-162.4-.2-56-10.8-110.7-31.8-162.4zM532 756h-40v-60h40v60zm104.5-267.1c-12.1 21-29.4 38.8-50.2 51.3l-.7.4c-1.1.6-2.3 1.1-3.5 1.9-31.3 19-50 52.5-50 88.5h-40c0-25 6.6-49.7 19.1-71.4 12.1-21 29.4-38.7 50.2-51.2 1.5-.9 3.1-1.8 4.6-2.6 31.1-19 49.7-52 49.7-88.4 0-57.1-46.5-103.7-103.6-103.7S408.4 360 408.4 417h-40c0-79 64.4-143.4 143.6-143.4s143.6 64.5 143.6 143.7c0 25.1-6.6 49.9-19.1 71.6z" fill="#BABABA" class="fill-000000"></path></svg>