<svg viewBox="0 0 24 24" xmlns="http://www.w3.org/2000/svg"><path d="M18 21H6a3 3 0 0 1-3-3V6a3 3 0 0 1 3-3h4a1 1 0 0 1 0 2H6a1 1 0 0 0-1 1v12a1 1 0 0 0 1 1h12a1 1 0 0 0 1-1v-4a1 1 0 0 1 2 0v4a3 3 0 0 1-3 3Z" fill="#3dff74" class="fill-464646"></path><path d="M21 4.05v5a1 1 0 0 1-.62.92.84.84 0 0 1-.38.08 1 1 0 0 1-.71-.29L17.45 8l-4.79 4.79a1 1 0 0 1-1.42 0 1 1 0 0 1 0-1.42L16 6.55l-1.76-1.79A1 1 0 0 1 14 3.67a1 1 0 0 1 1-.62h5a.73.73 0 0 1 .25 0 .37.37 0 0 1 .14 0 .94.94 0 0 1 .53.53.37.37 0 0 1 0 .14.73.73 0 0 1 .08.33Z" fill="#3dff74" class="fill-464646"></path></svg>